# Blender v2.93.1 OBJ File: 'room.blend'
# www.blender.org
v -20.000002 0.000000 20.000002
v 20.000002 0.000000 20.000002
v -20.000002 0.000000 -20.000002
v 20.000002 0.000000 -20.000002
v -20.000002 15.000000 -20.000002
v -20.000002 15.000000 20.000002
v 20.000002 15.000000 20.000002
v 20.000002 15.000000 -20.000002
vt 0.499800 0.000200
vt 0.499800 0.499800
vt 0.000200 0.499800
vt 0.000200 0.000200
vt 0.999800 0.000200
vt 0.999800 0.499800
vt 0.500200 0.499800
vt 0.500200 0.000200
vt 1.000400 0.500500
vt 1.000400 1.000400
vt 0.000799 1.000400
vt 0.000799 0.500500
vt 1.000400 0.499600
vt 1.000400 0.999500
vt 0.000799 0.999500
vt 0.000799 0.499600
vt 1.000400 0.500200
vt 1.000400 1.000100
vt 0.000799 1.000100
vt 0.000799 0.500200
vt 1.000400 0.499900
vt 1.000400 0.999800
vt 0.000799 0.999800
vt 0.000799 0.499900
vn 0.0000 1.0000 0.0000
vn 0.0000 -1.0000 0.0000
vn 0.0000 0.0000 -1.0000
vn -1.0000 0.0000 0.0000
vn 1.0000 0.0000 0.0000
vn 0.0000 0.0000 1.0000
s off
f 1/1/1 2/2/1 4/3/1 3/4/1
f 6/5/2 5/6/2 8/7/2 7/8/2
f 1/9/3 6/10/3 7/11/3 2/12/3
f 2/13/4 7/14/4 8/15/4 4/16/4
f 3/17/5 5/18/5 6/19/5 1/20/5
f 4/21/6 8/22/6 5/23/6 3/24/6
